<svg width="194" height="32" viewBox="0 0 194 32" fill="none" xmlns="http://www.w3.org/2000/svg">
<g clip-path="url(#clip0_14702_6)">
<path d="M44.435 28.8999C44.015 28.8999 43.665 28.7599 43.385 28.4799C43.1283 28.1999 43 27.8616 43 27.4649V5.7999C43 5.40323 43.1283 5.07657 43.385 4.8199C43.665 4.5399 44.0033 4.3999 44.4 4.3999H56.685C57.0817 4.3999 57.42 4.52823 57.7 4.7849C57.98 5.04157 58.12 5.36823 58.12 5.7649C58.12 6.13823 57.98 6.45323 57.7 6.7099C57.42 6.96657 57.0817 7.0949 56.685 7.0949H45.66L45.87 6.8149V15.3899L45.695 15.0049H55.11C55.5067 15.0049 55.845 15.1449 56.125 15.4249C56.405 15.6816 56.545 16.0082 56.545 16.4049C56.545 16.7549 56.405 17.0699 56.125 17.3499C55.845 17.6066 55.5067 17.7349 55.11 17.7349H45.625L45.87 17.4199V27.4649C45.87 27.8616 45.73 28.1999 45.45 28.4799C45.17 28.7599 44.8317 28.8999 44.435 28.8999Z" fill="white"/>
<path d="M63.3924 28.9001C62.9958 28.9001 62.6574 28.7601 62.3774 28.4801C62.1208 28.2001 61.9924 27.8618 61.9924 27.4651V12.2051C61.9924 11.8084 62.1208 11.4818 62.3774 11.2251C62.6574 10.9451 62.9958 10.8051 63.3924 10.8051C63.8124 10.8051 64.1508 10.9451 64.4074 11.2251C64.6641 11.4818 64.7924 11.8084 64.7924 12.2051V16.8251L64.3724 16.0901C64.5124 15.3668 64.7574 14.6668 65.1074 13.9901C65.4808 13.2901 65.9474 12.6718 66.5074 12.1351C67.0674 11.5751 67.7091 11.1434 68.4324 10.8401C69.1558 10.5134 69.9491 10.3501 70.8124 10.3501C71.3258 10.3501 71.7924 10.4784 72.2124 10.7351C72.6558 10.9684 72.8774 11.3068 72.8774 11.7501C72.8774 12.2401 72.7491 12.6018 72.4924 12.8351C72.2358 13.0684 71.9441 13.1851 71.6174 13.1851C71.3141 13.1851 71.0224 13.1268 70.7424 13.0101C70.4624 12.8701 70.1124 12.8001 69.6924 12.8001C69.1091 12.8001 68.5258 12.9634 67.9424 13.2901C67.3824 13.5934 66.8574 14.0368 66.3674 14.6201C65.9008 15.2034 65.5158 15.8684 65.2124 16.6151C64.9324 17.3384 64.7924 18.1201 64.7924 18.9601V27.4651C64.7924 27.8618 64.6524 28.2001 64.3724 28.4801C64.1158 28.7601 63.7891 28.9001 63.3924 28.9001Z" fill="white"/>
<path d="M83.6191 29.2501C81.7525 29.2501 80.1191 28.8534 78.7191 28.0601C77.3191 27.2668 76.2225 26.1818 75.4291 24.8051C74.6591 23.4051 74.2741 21.7951 74.2741 19.9751C74.2741 17.9451 74.6708 16.2184 75.4641 14.7951C76.2808 13.3484 77.3308 12.2518 78.6141 11.5051C79.9208 10.7351 81.2975 10.3501 82.7441 10.3501C83.8175 10.3501 84.8558 10.5484 85.8591 10.9451C86.8625 11.3418 87.7491 11.9251 88.5191 12.6951C89.2891 13.4418 89.9075 14.3518 90.3741 15.4251C90.8408 16.4751 91.0858 17.6534 91.1091 18.9601C91.1091 19.3334 90.9691 19.6484 90.6891 19.9051C90.4091 20.1618 90.0825 20.2901 89.7091 20.2901H75.8841L75.2541 17.8751H88.7291L88.1691 18.3651V17.5951C88.0758 16.6384 87.7491 15.8218 87.1891 15.1451C86.6525 14.4451 85.9875 13.9084 85.1941 13.5351C84.4241 13.1618 83.6075 12.9751 82.7441 12.9751C82.0441 12.9751 81.3441 13.1034 80.6441 13.3601C79.9675 13.5934 79.3491 13.9901 78.7891 14.5501C78.2525 15.0868 77.8091 15.7868 77.4591 16.6501C77.1325 17.5134 76.9691 18.5518 76.9691 19.7651C76.9691 21.1184 77.2375 22.3084 77.7741 23.3351C78.3341 24.3618 79.1041 25.1784 80.0841 25.7851C81.0641 26.3684 82.2075 26.6601 83.5141 26.6601C84.3308 26.6601 85.0425 26.5551 85.6491 26.3451C86.2558 26.1351 86.7808 25.8784 87.2241 25.5751C87.6675 25.2484 88.0408 24.9218 88.3441 24.5951C88.6475 24.3851 88.9391 24.2801 89.2191 24.2801C89.5691 24.2801 89.8491 24.3968 90.0591 24.6301C90.2925 24.8634 90.4091 25.1434 90.4091 25.4701C90.4091 25.8668 90.2225 26.2168 89.8491 26.5201C89.1958 27.2434 88.3091 27.8851 87.1891 28.4451C86.0691 28.9818 84.8791 29.2501 83.6191 29.2501Z" fill="white"/>
<path d="M103.683 29.2501C101.816 29.2501 100.183 28.8534 98.7826 28.0601C97.3826 27.2668 96.286 26.1818 95.4926 24.8051C94.7226 23.4051 94.3376 21.7951 94.3376 19.9751C94.3376 17.9451 94.7343 16.2184 95.5276 14.7951C96.3443 13.3484 97.3943 12.2518 98.6776 11.5051C99.9843 10.7351 101.361 10.3501 102.808 10.3501C103.881 10.3501 104.919 10.5484 105.923 10.9451C106.926 11.3418 107.813 11.9251 108.583 12.6951C109.353 13.4418 109.971 14.3518 110.438 15.4251C110.904 16.4751 111.149 17.6534 111.173 18.9601C111.173 19.3334 111.033 19.6484 110.753 19.9051C110.473 20.1618 110.146 20.2901 109.773 20.2901H95.9476L95.3176 17.8751H108.793L108.233 18.3651V17.5951C108.139 16.6384 107.813 15.8218 107.253 15.1451C106.716 14.4451 106.051 13.9084 105.258 13.5351C104.488 13.1618 103.671 12.9751 102.808 12.9751C102.108 12.9751 101.408 13.1034 100.708 13.3601C100.031 13.5934 99.4126 13.9901 98.8526 14.5501C98.316 15.0868 97.8726 15.7868 97.5226 16.6501C97.196 17.5134 97.0326 18.5518 97.0326 19.7651C97.0326 21.1184 97.3009 22.3084 97.8376 23.3351C98.3976 24.3618 99.1676 25.1784 100.148 25.7851C101.128 26.3684 102.271 26.6601 103.578 26.6601C104.394 26.6601 105.106 26.5551 105.713 26.3451C106.319 26.1351 106.844 25.8784 107.288 25.5751C107.731 25.2484 108.104 24.9218 108.408 24.5951C108.711 24.3851 109.003 24.2801 109.283 24.2801C109.633 24.2801 109.913 24.3968 110.123 24.6301C110.356 24.8634 110.473 25.1434 110.473 25.4701C110.473 25.8668 110.286 26.2168 109.913 26.5201C109.259 27.2434 108.373 27.8851 107.253 28.4451C106.133 28.9818 104.943 29.2501 103.683 29.2501Z" fill="white"/>
<path d="M124.131 10.525C125.671 10.525 126.884 10.8633 127.771 11.54C128.681 12.1933 129.323 13.08 129.696 14.2C130.093 15.2967 130.291 16.5217 130.291 17.875V27.465C130.291 27.8617 130.151 28.2 129.871 28.48C129.614 28.76 129.288 28.9 128.891 28.9C128.494 28.9 128.156 28.76 127.876 28.48C127.619 28.2 127.491 27.8617 127.491 27.465V17.875C127.491 16.9883 127.363 16.195 127.106 15.495C126.849 14.7717 126.418 14.2 125.811 13.78C125.228 13.3367 124.423 13.115 123.396 13.115C122.439 13.115 121.564 13.3367 120.771 13.78C119.978 14.2 119.348 14.7717 118.881 15.495C118.414 16.195 118.181 16.9883 118.181 17.875V27.465C118.181 27.8617 118.041 28.2 117.761 28.48C117.504 28.76 117.178 28.9 116.781 28.9C116.384 28.9 116.046 28.76 115.766 28.48C115.509 28.2 115.381 27.8617 115.381 27.465V4.4C115.381 4.00333 115.509 3.67667 115.766 3.42C116.046 3.14 116.384 3 116.781 3C117.201 3 117.539 3.14 117.796 3.42C118.053 3.67667 118.181 4.00333 118.181 4.4V14.865L117.481 15.635C117.598 15.0283 117.854 14.4217 118.251 13.815C118.648 13.185 119.149 12.625 119.756 12.135C120.363 11.645 121.039 11.26 121.786 10.98C122.533 10.6767 123.314 10.525 124.131 10.525Z" fill="white"/>
<path d="M150.389 10.6301C150.785 10.6301 151.112 10.7701 151.369 11.0501C151.649 11.3068 151.789 11.6334 151.789 12.0301V27.4651C151.789 27.8618 151.649 28.2001 151.369 28.4801C151.112 28.7601 150.785 28.9001 150.389 28.9001C149.969 28.9001 149.63 28.7601 149.374 28.4801C149.117 28.2001 148.989 27.8618 148.989 27.4651V24.1401L149.654 24.0701C149.654 24.5834 149.479 25.1434 149.129 25.7501C148.779 26.3568 148.3 26.9284 147.694 27.4651C147.087 27.9784 146.364 28.4101 145.524 28.7601C144.707 29.0868 143.82 29.2501 142.864 29.2501C141.277 29.2501 139.854 28.8418 138.594 28.0251C137.334 27.1851 136.33 26.0534 135.584 24.6301C134.86 23.2068 134.499 21.5851 134.499 19.7651C134.499 17.9218 134.86 16.3001 135.584 14.9001C136.33 13.4768 137.334 12.3684 138.594 11.5751C139.854 10.7584 141.254 10.3501 142.794 10.3501C143.797 10.3501 144.73 10.5134 145.594 10.8401C146.457 11.1668 147.204 11.6101 147.834 12.1701C148.487 12.7301 148.989 13.3484 149.339 14.0251C149.712 14.7018 149.899 15.3784 149.899 16.0551L148.989 15.8451V12.0301C148.989 11.6334 149.117 11.3068 149.374 11.0501C149.63 10.7701 149.969 10.6301 150.389 10.6301ZM143.179 26.6601C144.345 26.6601 145.372 26.3568 146.259 25.7501C147.169 25.1434 147.869 24.3268 148.359 23.3001C148.872 22.2501 149.129 21.0718 149.129 19.7651C149.129 18.4818 148.872 17.3268 148.359 16.3001C147.869 15.2501 147.169 14.4334 146.259 13.8501C145.372 13.2434 144.345 12.9401 143.179 12.9401C142.035 12.9401 141.009 13.2318 140.099 13.8151C139.212 14.3984 138.512 15.2034 137.999 16.2301C137.485 17.2568 137.229 18.4351 137.229 19.7651C137.229 21.0718 137.474 22.2501 137.964 23.3001C138.477 24.3268 139.177 25.1434 140.064 25.7501C140.974 26.3568 142.012 26.6601 143.179 26.6601Z" fill="white"/>
<path d="M165.973 10.3501C167.559 10.3501 168.808 10.6768 169.718 11.3301C170.628 11.9834 171.269 12.8584 171.643 13.9551C172.039 15.0518 172.238 16.2768 172.238 17.6301V27.4651C172.238 27.8618 172.098 28.2001 171.818 28.4801C171.561 28.7601 171.234 28.9001 170.838 28.9001C170.441 28.9001 170.103 28.7601 169.823 28.4801C169.566 28.2001 169.438 27.8618 169.438 27.4651V17.7001C169.438 16.8134 169.298 16.0201 169.018 15.3201C168.761 14.5968 168.318 14.0251 167.688 13.6051C167.081 13.1618 166.241 12.9401 165.168 12.9401C164.188 12.9401 163.289 13.1618 162.473 13.6051C161.656 14.0251 161.003 14.5968 160.513 15.3201C160.023 16.0201 159.778 16.8134 159.778 17.7001V27.4651C159.778 27.8618 159.638 28.2001 159.358 28.4801C159.101 28.7601 158.774 28.9001 158.378 28.9001C157.981 28.9001 157.643 28.7601 157.363 28.4801C157.106 28.2001 156.978 27.8618 156.978 27.4651V12.2051C156.978 11.8084 157.106 11.4818 157.363 11.2251C157.643 10.9451 157.981 10.8051 158.378 10.8051C158.798 10.8051 159.136 10.9451 159.393 11.2251C159.649 11.4818 159.778 11.8084 159.778 12.2051V14.6901L159.078 15.4601C159.194 14.8534 159.463 14.2468 159.883 13.6401C160.303 13.0101 160.828 12.4501 161.458 11.9601C162.088 11.4701 162.788 11.0851 163.558 10.8051C164.328 10.5018 165.133 10.3501 165.973 10.3501Z" fill="white"/>
<path d="M192.327 3C192.724 3 193.051 3.14 193.307 3.42C193.587 3.67667 193.727 4.00333 193.727 4.4V27.465C193.727 27.8617 193.587 28.2 193.307 28.48C193.051 28.76 192.724 28.9 192.327 28.9C191.907 28.9 191.569 28.76 191.312 28.48C191.056 28.2 190.927 27.8617 190.927 27.465V24.14L191.592 23.895C191.592 24.455 191.417 25.05 191.067 25.68C190.717 26.2867 190.239 26.8583 189.632 27.395C189.026 27.9317 188.302 28.375 187.462 28.725C186.646 29.075 185.759 29.25 184.802 29.25C183.239 29.25 181.816 28.8417 180.532 28.025C179.272 27.2083 178.269 26.0883 177.522 24.665C176.799 23.2417 176.437 21.62 176.437 19.8C176.437 17.9567 176.799 16.3233 177.522 14.9C178.269 13.4767 179.272 12.3683 180.532 11.575C181.792 10.7583 183.192 10.35 184.732 10.35C185.712 10.35 186.634 10.5133 187.497 10.84C188.361 11.1667 189.107 11.61 189.737 12.17C190.391 12.73 190.904 13.3483 191.277 14.025C191.651 14.7017 191.837 15.3783 191.837 16.055L190.927 15.845V4.4C190.927 4.00333 191.056 3.67667 191.312 3.42C191.569 3.14 191.907 3 192.327 3ZM185.117 26.66C186.284 26.66 187.311 26.3683 188.197 25.785C189.107 25.1783 189.807 24.3617 190.297 23.335C190.811 22.285 191.067 21.1067 191.067 19.8C191.067 18.47 190.811 17.2917 190.297 16.265C189.807 15.2383 189.107 14.4333 188.197 13.85C187.311 13.2433 186.284 12.94 185.117 12.94C183.974 12.94 182.947 13.2433 182.037 13.85C181.151 14.4333 180.451 15.2383 179.937 16.265C179.424 17.2917 179.167 18.47 179.167 19.8C179.167 21.0833 179.424 22.25 179.937 23.3C180.451 24.3267 181.151 25.1433 182.037 25.75C182.947 26.3567 183.974 26.66 185.117 26.66Z" fill="white"/>
<mask id="mask0_14702_6" style="mask-type:luminance" maskUnits="userSpaceOnUse" x="0" y="0" width="32" height="32">
<path d="M32 0H0V32H32V0Z" fill="white"/>
</mask>
<g mask="url(#mask0_14702_6)">
<path d="M6.09999 15.9999C3.89999 17.2999 2.39999 19.6999 2.39999 22.2999C2.39999 26.2999 5.69999 29.5999 9.69999 29.5999C12.4 29.5999 14.8 28.0999 16.1 25.7999C17.4 28.0999 19.8 29.5999 22.5 29.5999C26.5 29.5999 29.8 26.2999 29.8 22.2999C29.8 19.5999 28.4 17.1999 26.1 15.9999C28.3 14.6999 29.8 12.2999 29.8 9.6999C29.8 5.6999 26.5 2.3999 22.5 2.3999C19.8 2.3999 17.4 3.8999 16.1 6.1999C14.8 3.8999 12.4 2.3999 9.69999 2.3999C5.69999 2.3999 2.39999 5.6999 2.39999 9.6999C2.39999 12.2999 3.79999 14.6999 6.09999 15.9999Z" stroke="#3DB370" stroke-width="3"/>
</g>
</g>
<defs>
<clipPath id="clip0_14702_6">
<rect width="194" height="32" fill="white"/>
</clipPath>
</defs>
</svg>
